<svg xmlns="http://www.w3.org/2000/svg" viewBox="0 0 960 300" role="img" aria-label="Dark fantasy Season 3 banner">
  <defs>
    <linearGradient id="sky" x1="0" y1="0" x2="0" y2="1">
      <stop offset="0" stop-color="#1b1007"/>
      <stop offset=".52" stop-color="#080503"/>
      <stop offset="1" stop-color="#020100"/>
    </linearGradient>
    <radialGradient id="moon" cx="50%" cy="32%" r="28%">
      <stop offset="0" stop-color="#fff3ba" stop-opacity=".9"/>
      <stop offset=".45" stop-color="#d29a37" stop-opacity=".35"/>
      <stop offset="1" stop-color="#000" stop-opacity="0"/>
    </radialGradient>
    <linearGradient id="lava" x1="0" x2="1">
      <stop offset="0" stop-color="#3b0d05"/>
      <stop offset=".5" stop-color="#e6a340"/>
      <stop offset="1" stop-color="#3b0d05"/>
    </linearGradient>
    <filter id="soft" x="-20%" y="-20%" width="140%" height="140%">
      <feGaussianBlur stdDeviation="5"/>
    </filter>
  </defs>
  <rect width="960" height="300" rx="10" fill="url(#sky)"/>
  <rect width="960" height="300" rx="10" fill="url(#moon)"/>
  <g opacity=".55" filter="url(#soft)">
    <path d="M60 242c90-68 150-103 227-78 44 14 70 42 128 32 69-12 99-73 183-70 90 4 148 70 303 45v129H60z" fill="#110a04"/>
  </g>
  <g fill="#050302" stroke="#6a4a18" stroke-width="2">
    <path d="M95 250h160l-20-85-38-20-32 38-34-18z"/>
    <path d="M705 251h175l-18-104-41-31-32 53-46-21z"/>
    <path d="M443 252h95l-13-126-34-54-35 54z"/>
  </g>
  <path d="M0 260c151-28 284-26 415 0 168 33 311 32 545-9v49H0z" fill="#070402"/>
  <path d="M0 268c158-18 315-5 461 7 183 15 308-2 499-28" fill="none" stroke="url(#lava)" stroke-width="5" opacity=".75"/>
  <g transform="translate(412 52)">
    <path d="M68 0 129 24v53c0 38-25 64-61 78C32 141 7 115 7 77V24z" fill="#090604" stroke="#e6c34a" stroke-width="4"/>
    <path d="M68 18 110 35v40c0 25-16 43-42 55-26-12-42-30-42-55V35z" fill="#7e3510" opacity=".82"/>
    <text x="68" y="91" text-anchor="middle" font-family="Georgia,serif" font-size="42" font-weight="700" fill="#fff5b8">S3</text>
  </g>
  <rect x="10" y="10" width="940" height="280" rx="8" fill="none" stroke="#e6c34a" stroke-opacity=".5" stroke-width="2"/>
  <rect x="20" y="20" width="920" height="260" rx="4" fill="none" stroke="#6a4a18" stroke-opacity=".7"/>
</svg>
